<?xml version="1.0" encoding="utf-8"?>
<!DOCTYPE svg PUBLIC "-//W3C//DTD SVG 1.0//EN" "http://www.w3.org/TR/2001/REC-SVG-20010904/DTD/svg10.dtd">
<svg version="1.0" xmlns="http://www.w3.org/2000/svg" width="1024px" height="1024px" viewBox="0 0 1024 1024" preserveAspectRatio="xMidYMid meet">
 <g fill="#1073af">
  <path d="M679 845.9 c0 -0.5 -0.5 -0.7 -1 -0.4 -1.8 1.1 -38.3 -19.2 -37.3 -20.8 0.3 -0.6 0.1 -0.7 -0.5 -0.3 -0.7 0.4 -4 -1 -7.4 -3 -3.5 -2 -8.3 -4.8 -10.8 -6.1 -2.5 -1.4 -5 -3 -5.5 -3.7 -0.6 -0.6 -1.5 -1.2 -2 -1.3 -1.1 -0.2 -13.2 -7 -32.5 -18.3 -6.9 -4 -14.1 -8.2 -16 -9.2 -4.6 -2.6 -18.9 -11 -37.9 -22.5 -14.6 -8.7 -15.6 -9.2 -17.3 -7.6 -1 0.9 -2.8 1.7 -4.1 1.8 -1.2 0.1 -2.2 0.7 -2.2 1.3 0 0.6 -5.4 4.8 -12 9.3 -6.6 4.5 -13 9 -14.3 10 -1.3 1 -2.9 1.6 -3.7 1.3 -0.7 -0.3 -1.6 0 -2.1 0.7 -0.4 0.8 -0.3 1 0.4 0.5 0.7 -0.4 1.2 -0.5 1.2 -0.2 0 1.3 -37.2 25.6 -38.2 25 -0.7 -0.4 -0.8 -0.3 -0.4 0.4 0.4 0.7 -4.5 4.6 -12.8 10.1 -8.6 5.8 -13.6 8.6 -13.9 7.8 -0.3 -0.7 -0.6 -0.5 -0.6 0.5 -0.1 0.9 -1.4 2.6 -3 3.7 -3.2 2.3 -4.6 2.7 -3.5 0.9 0.4 -0.7 0.3 -0.8 -0.5 -0.4 -0.6 0.4 -0.9 1.1 -0.6 1.6 0.7 1.1 -21.1 15.8 -25 16.8 -3.4 1 -9.9 -0.4 -9 -1.8 0.3 -0.5 0 -0.7 -0.8 -0.4 -1.7 0.6 -8.9 -7.7 -29.3 -34.1 -16.7 -21.5 -17.9 -23.3 -18.7 -26.4 -1 -3.9 1.7 -8.6 7.5 -12.8 23.1 -17.1 58.1 -41.2 58.9 -40.8 0.5 0.4 0.8 0.2 0.7 -0.4 -0.4 -1.3 9.2 -8.2 10.4 -7.5 0.5 0.3 0.7 0.1 0.6 -0.5 -0.4 -1.4 21 -16.3 22.4 -15.5 0.6 0.4 0.8 0.3 0.5 -0.3 -0.4 -0.6 2 -2.9 5.3 -5.2 3.3 -2.3 6 -4.5 5.9 -4.9 0 -0.4 -5.5 -4.7 -12.2 -9.7 -14.5 -10.7 -49.2 -38.4 -63.1 -50.4 -5.4 -4.7 -11.5 -9.9 -13.5 -11.5 -10.1 -8.3 -20 -17.9 -19.4 -18.8 0.3 -0.7 0.1 -0.8 -0.6 -0.4 -1.3 0.8 -17.8 -14 -17.3 -15.6 0.1 -0.5 -0.1 -0.7 -0.6 -0.4 -1.2 0.7 -18.4 -16.8 -17.5 -17.9 0.4 -0.4 0.3 -0.5 -0.3 -0.2 -2 1.2 -30 -28.5 -47.3 -50.3 -19.1 -24 -44.1 -66 -41.6 -70 0.5 -0.8 0.4 -1.1 -0.2 -0.7 -1.3 0.8 -7.2 -14.5 -11.2 -29 -9.6 -34.6 -10.5 -68.1 -2.6 -100.9 10 -42 34.6 -78.9 70 -105.2 11.5 -8.6 35.7 -21.7 38.2 -20.8 0.9 0.4 1.1 0.2 0.7 -0.6 -0.5 -0.7 0 -0.9 1.4 -0.6 1.2 0.4 2 0.3 1.8 -0.1 -0.7 -1.1 16.4 -6.4 21.1 -6.5 2.2 -0.1 3.6 -0.4 3 -0.8 -0.8 -0.5 -0.8 -0.8 -0.1 -0.8 0.6 0 5.5 -0.6 11 -1.4 13 -1.9 25.6 -2.4 38.1 -1.5 12.6 0.9 24.3 2.9 24.3 4.2 0 0.5 0.7 0.7 1.5 0.4 1.4 -0.6 16.2 3.3 21 5.5 1.3 0.6 2.2 1.5 1.9 1.9 -0.3 0.5 0.6 0.8 1.9 0.7 2.9 -0.3 8.7 2.1 8.7 3.5 0 0.6 0.3 0.8 0.6 0.4 0.7 -0.6 6.4 1.9 6.4 2.9 0 0.3 -0.5 0.2 -1.2 -0.2 -0.7 -0.5 -0.8 -0.3 -0.4 0.5 0.5 0.7 1.4 1 2.1 0.8 1.8 -0.8 11.7 5.2 10.9 6.5 -0.4 0.6 -0.1 0.9 0.7 0.6 1.8 -0.7 13 7.2 12.2 8.5 -0.3 0.5 -0.1 0.7 0.5 0.3 1.5 -0.9 10.8 7.1 23.7 20.5 15.2 15.8 22.6 24.5 22.3 26 -0.2 0.7 0.3 1.3 1 1.4 0.7 0 2.1 1.1 3.1 2.4 l1.8 2.3 2.3 -3.3 c14.6 -21.2 39.7 -45.9 60.7 -59.6 10.3 -6.7 28.9 -15.7 30.9 -14.9 1 0.4 1.3 0.2 0.8 -0.6 -0.5 -0.7 0 -0.9 1.4 -0.6 1.2 0.4 2 0.2 1.6 -0.3 -0.3 -0.5 0.3 -0.9 1.3 -0.9 1.1 0 2.3 -0.4 2.8 -0.9 1.5 -1.3 13.4 -4.3 14.5 -3.6 0.6 0.3 1 0.2 1 -0.3 0 -1.8 32.3 -5.8 40 -4.8 1.9 0.2 6.3 0.4 9.8 0.5 3.5 0 6.1 0.5 5.8 0.9 -0.3 0.5 0.9 0.6 2.6 0.4 3.2 -0.5 16.5 1.5 18.3 2.7 0.6 0.4 2.4 0.8 4 1 4.8 0.5 21.5 6.1 21.5 7.2 0 0.6 0.4 0.7 1 0.4 1.4 -0.9 13 4.5 13 6 0 0.7 1 1.5 2.3 1.8 2.1 0.6 2.1 0.6 0.3 -0.8 -3.7 -2.8 -0.3 -1.5 7 2.7 4 2.3 7.2 4.6 7.1 5.1 -0.1 0.5 0.4 1.2 1.2 1.5 0.9 0.3 1.1 0 0.7 -0.7 -1.3 -2.1 9.3 5 10.9 7.2 0.9 1.2 1.8 2 2.1 1.8 1.1 -0.7 7.5 5 6.8 6.1 -0.5 0.7 -0.2 0.8 0.5 0.3 1.7 -1 19.6 16.9 18.6 18.6 -0.5 0.7 -0.4 1 0.3 0.6 1 -0.7 6 4.8 12.3 13.8 5.3 7.4 5.7 8.3 3.3 6.6 -1 -0.8 -0.5 -0.1 1.2 1.5 3.2 3.1 17.2 30 16.1 31 -0.3 0.4 0 1.2 0.7 1.9 1.8 1.8 8 23.1 8 27.7 0.1 2 0.4 3.4 0.7 3.2 1.5 -0.9 3 16.5 3 33.7 0 26.5 -4.2 50.5 -13.2 75.4 -4.2 11.5 -18.3 39.1 -19.9 38.7 -0.6 -0.1 -0.9 0.2 -0.5 0.8 0.9 1.5 -14.3 24.2 -15.7 23.4 -0.6 -0.4 -0.8 -0.3 -0.5 0.3 1.6 2.6 -36.1 48.1 -38.6 46.6 -0.6 -0.3 -0.7 -0.1 -0.3 0.6 1.4 2.1 -67.4 68.8 -69.6 67.5 -0.5 -0.3 -0.7 -0.1 -0.6 0.4 0.5 1.8 -29.7 27.6 -31.2 26.7 -0.6 -0.4 -0.9 -0.1 -0.8 0.6 0.4 1.5 -46.1 39.1 -47.3 38.3 -0.5 -0.3 -0.8 -0.1 -0.7 0.5 0.3 1 -13.8 12.1 -15.4 12.1 -2.1 0 -0.4 1.8 3.8 3.8 2.8 1.4 4.2 2.7 3.8 3.4 -0.4 0.6 -0.3 0.8 0.4 0.4 1.2 -0.7 16.4 7.2 15.8 8.3 -0.3 0.4 0.5 1.3 1.7 2.1 2.1 1.2 2.1 1.2 0.7 -0.5 -1.1 -1.4 -0.2 -1.2 3.7 1 2.9 1.5 5 3.2 4.6 3.8 -0.3 0.6 -0.1 0.7 0.5 0.3 0.6 -0.4 2.5 0 4.2 0.9 3.3 1.7 4 2.7 1.3 1.9 -1.6 -0.5 -1.6 -0.4 0 0.6 1 0.7 2.1 0.9 2.4 0.6 0.9 -0.9 12 5.2 12.7 6.9 0.3 0.9 1.2 1.5 1.9 1.2 1.7 -0.6 14.7 6.4 14 7.6 -0.3 0.5 0 0.7 0.8 0.5 1.9 -0.7 28.9 13.3 28.2 14.5 -0.3 0.6 -0.1 0.7 0.5 0.3 1.6 -1 18.4 7.6 16.9 8.7 -0.8 0.6 -0.6 0.7 0.6 0.3 1.1 -0.3 5.8 1.5 12 4.5 12.1 6 14 7.5 13.1 10.2 -0.4 1.3 -0.2 1.7 0.5 1.3 1.7 -1.1 1.4 4 -0.4 7.5 -0.9 1.7 -2.1 2.7 -2.7 2.3 -0.7 -0.4 -0.8 -0.3 -0.4 0.5 1 1.5 -3.2 7.3 -4.7 6.5 -0.7 -0.4 -0.9 -0.4 -0.5 0.1 1.1 1.1 -1.1 4.7 -2.4 3.9 -0.6 -0.4 -0.8 -0.3 -0.4 0.4 0.7 1.2 -19.2 27.8 -20.6 27.4 -0.5 -0.1 -0.7 0.2 -0.4 0.7 0.6 0.9 -8.1 13 -12.6 17.4 -1.6 1.5 -4 3.2 -5.4 3.7 -3.4 1.3 -7.4 1.3 -7.4 -0.1z m-1 -40 c0 -0.5 0.5 -0.7 1.2 -0.3 0.7 0.4 0.8 0.3 0.4 -0.4 -0.8 -1.4 2.3 -6.4 3.5 -5.6 0.5 0.3 0.6 -0.1 0.4 -0.9 -0.3 -0.7 0.7 -3.1 2.2 -5.3 1.6 -2.1 3.6 -5.1 4.6 -6.7 l1.8 -2.7 -6.6 -3.1 c-3.5 -1.7 -6.2 -3.5 -5.9 -4 0.3 -0.5 -0.1 -0.6 -0.9 -0.3 -0.8 0.3 -5.5 -1.5 -10.5 -4 -5 -2.6 -9.7 -4.6 -10.4 -4.6 -0.7 0 -3.5 3.6 -6.1 8 -2.7 4.4 -5.3 8 -5.8 8 -0.5 0 -0.8 0.6 -0.6 1.3 0.1 0.6 -0.3 1.1 -0.9 1 -0.6 -0.1 -1.1 0.9 -1 2.2 0.1 2 1.4 3.1 7.4 5.9 3.9 2 7.2 4 7.2 4.6 0 0.6 0.4 0.9 0.9 0.5 1.2 -0.7 8.1 2.5 8.1 3.7 0 0.5 0.3 0.7 0.8 0.5 0.4 -0.3 2.3 0.3 4.2 1.4 4 2.1 6 2.4 6 0.8z m-300.6 -5 c2.1 -1.6 4.4 -2.6 4.9 -2.2 0.6 0.3 0.7 0.1 0.3 -0.5 -0.4 -0.7 -0.4 -1.2 0.1 -1.2 0.4 0 2.1 -1.1 3.7 -2.3 l2.9 -2.4 -6.9 -10.1 c-6.2 -9 -9.8 -13.1 -9.1 -10.1 0.1 0.6 -3.5 3.3 -8.1 6.1 l-8.2 5 2 3.2 c1.1 1.8 1.6 3.6 1.2 4 -0.4 0.4 -0.2 0.6 0.4 0.4 1.3 -0.3 8.4 8.4 8.9 11 0.4 2.1 0.2 1.9 2.3 1.9 0.9 0 3.5 -1.3 5.6 -2.8z m52.5 -34.4 c6.3 -4.1 11.8 -7.2 12.3 -6.9 0.4 0.3 0.8 0 0.8 -0.5 0 -0.6 2.2 -2.6 5 -4.3 2.7 -1.8 5 -3.6 5 -4.1 0 -0.4 -3.2 -5.6 -7.1 -11.6 -5.1 -7.9 -7.6 -10.9 -9 -10.8 -1 0.1 -2.1 0.7 -2.3 1.4 -0.3 0.7 -1 1.3 -1.6 1.3 -0.6 0 -0.8 -0.5 -0.4 -1.2 0.4 -0.7 0.3 -0.8 -0.5 -0.4 -0.6 0.4 -0.9 1.1 -0.6 1.5 0.4 0.7 -9.4 7.1 -23 15.1 -4.8 2.9 -9.6 6.5 -7.5 5.8 1.1 -0.4 3.7 2.6 9 10.7 4.1 6.3 7.7 11.4 8 11.4 0.3 0.1 5.7 -3.3 11.9 -7.4z m180.3 -2.5 c1.9 -2.7 3.8 -4.7 4.2 -4.3 0.4 0.4 0.4 0 0.1 -0.8 -0.4 -1 0.5 -2.8 2.2 -4.7 1.5 -1.6 3 -3.6 3.2 -4.4 0.2 -0.7 0.5 -2 0.8 -2.9 0.3 -1.2 -1.4 -2.6 -6.4 -5.2 -3.7 -2 -6.7 -4.1 -6.5 -4.7 0.1 -0.6 -0.2 -0.9 -0.7 -0.5 -1.5 0.9 -7.3 -2.4 -6.5 -3.7 0.4 -0.7 0.3 -0.8 -0.5 -0.4 -0.6 0.4 -4.4 -1 -8.5 -3.2 l-7.3 -3.9 -6.4 9.6 c-3.5 5.3 -6.9 9.5 -7.5 9.4 -0.7 -0.1 -0.9 0.8 -0.6 2.2 0.3 1.9 2.3 3.5 7.8 6.6 4 2.2 7.3 4.5 7.1 5.2 -0.1 0.6 0.9 1.2 2.3 1.2 3.1 0.2 9.3 3.9 8.2 5 -0.4 0.5 -0.1 0.5 0.5 0.1 1.6 -0.9 5.6 1.7 4.5 2.9 -0.4 0.4 0 0.6 0.9 0.3 0.9 -0.4 2.2 -0.2 3 0.3 2.2 1.4 2.4 1.2 6.1 -4.1z m-117.7 -40.1 c0.4 -0.6 1.3 -0.8 2.1 -0.5 0.8 0.3 1.3 0.1 1.1 -0.4 -0.3 -1.3 6.4 -6 7.7 -5.3 0.6 0.3 0.8 0.3 0.4 -0.2 -0.4 -0.4 4.9 -4.5 11.7 -9.1 6.9 -4.6 12 -8.6 11.4 -9 -0.6 -0.3 -0.8 -1.3 -0.5 -2.1 0.3 -0.8 0.2 -1.2 -0.3 -0.8 -0.5 0.3 -4 -3.8 -7.8 -9 -3.7 -5.2 -7.3 -9.5 -7.8 -9.5 -0.6 0 -5.4 2.9 -10.7 6.5 -9.9 6.6 -11.5 7.4 -10.2 5.3 0.4 -0.7 0.3 -0.8 -0.5 -0.4 -0.6 0.4 -0.9 1.1 -0.6 1.6 0.4 0.7 -11.9 9.3 -14.7 10.2 -0.6 0.2 2.4 5.1 6.7 10.8 4.2 5.8 8 11 8.2 11.7 0.6 1.6 2.9 1.7 3.8 0.2z m81 -59.3 c19 -13.4 25.5 -18.2 25.5 -19 0 -0.4 -3.7 -5 -8.1 -10.2 l-8.1 -9.4 -2.5 2 c-1.4 1.1 -2.9 1.7 -3.4 1.4 -0.5 -0.3 -0.8 -0.1 -0.7 0.4 0.3 1 -9.2 8.2 -22.3 16.9 -5.4 3.6 -6.7 4.9 -5.8 5.9 0.6 0.7 0.7 1.9 0.3 2.5 -0.4 0.8 -0.3 0.9 0.5 0.5 1.2 -0.8 2.3 0.3 11.3 10.6 2.3 2.6 4.5 4.5 5.1 4.1 0.5 -0.3 4.2 -2.9 8.2 -5.7z m-108.6 -4.5 c9.2 -8.8 9.3 -8.9 7 -10.2 -3.1 -1.6 -8.9 -6.6 -8.3 -7.1 0.2 -0.3 -0.2 -0.5 -0.9 -0.5 -2 0 -16.7 -11.3 -16.4 -12.6 0.1 -0.7 -0.4 -1.1 -1.2 -0.9 -0.7 0.1 -1.9 -0.2 -2.7 -0.8 -1 -0.9 -2.7 0.3 -7.6 5.7 -3.5 3.7 -7.5 8 -9 9.5 l-2.6 2.8 3.2 2.7 c1.7 1.6 4.3 3.6 5.6 4.6 1.4 1 1.9 1.5 1.1 1.1 -0.9 -0.5 -1.2 -0.3 -0.7 0.4 0.4 0.7 1.4 1.2 2.2 1.2 2.1 0 8.5 5 7.8 6.1 -0.3 0.5 0.1 0.7 0.8 0.4 0.7 -0.2 3.3 1.1 5.8 3 2.5 1.8 5 3.4 5.5 3.4 0.6 0 5.2 -4 10.4 -8.8z m69.5 -37.4 c11.5 -8.8 21.5 -16 22.2 -16 0.7 0 1.2 -0.4 1.1 -0.8 -0.3 -1.3 23.4 -20 24.5 -19.3 0.6 0.4 0.8 0.3 0.5 -0.3 -0.8 -1.3 11.3 -11.4 12.6 -10.6 0.6 0.3 0.7 0.2 0.4 -0.4 -0.4 -0.6 3 -4.1 7.5 -7.9 23.4 -19.7 70.5 -65 88.4 -84.9 5.5 -6 10.4 -10.8 10.9 -10.7 0.6 0.2 0.7 0 0.3 -0.3 -0.9 -0.9 6.1 -9.7 7.1 -9 0.4 0.2 0.8 -0.1 0.8 -0.8 0 -0.7 3.5 -5.7 7.8 -11.2 20.3 -25.9 30.4 -46.1 34.6 -69.5 1.4 -8.1 1.4 -25.2 -0.1 -32.8 -2.7 -13.5 -9.4 -29.4 -16.4 -38.5 -2 -2.6 -3.4 -4.7 -3.1 -4.7 0.9 0 -11.1 -10.6 -16.6 -14.7 -3 -2.2 -7.4 -5 -9.7 -6.2 -2.4 -1.2 -4 -2.6 -3.7 -3 0.2 -0.5 -0.5 -0.9 -1.8 -0.9 -2.5 0 -15 -4.6 -14.3 -5.3 0.2 -0.2 -0.8 -0.4 -2.2 -0.5 -1.5 0 -6.9 -0.6 -12.1 -1.3 -11 -1.5 -22 -0.9 -33.9 1.9 -4.6 1.1 -8.9 1.7 -9.5 1.3 -0.7 -0.3 -0.9 -0.2 -0.5 0.2 0.5 0.5 -3.2 2.7 -8.2 5.1 -4.9 2.3 -10.9 5.6 -13.4 7.3 -2.5 1.7 -5.1 3 -5.8 2.9 -0.7 -0.2 -1.2 0.2 -1.1 0.9 0.1 0.6 -1.4 2.4 -3.5 3.9 -2 1.6 -7.2 6.1 -11.5 10.1 -4.3 4.1 -8.3 7 -8.9 6.7 -0.6 -0.4 -0.8 -0.3 -0.5 0.3 0.9 1.4 -55 56.2 -59 57.9 -3.9 1.7 -7.9 1.7 -11.6 0.1 -4 -1.7 -40.8 -37.7 -40 -39.1 0.3 -0.6 0.2 -0.8 -0.2 -0.3 -1.1 1 -10.6 -8.3 -9.8 -9.6 0.3 -0.6 0.1 -0.7 -0.4 -0.4 -0.6 0.4 -5.9 -3.9 -11.7 -9.5 -5.9 -5.5 -11.8 -11 -13.2 -12 -1.3 -1.1 -2.2 -2.3 -2 -2.7 0.3 -0.4 0 -0.8 -0.7 -0.8 -2.2 0 -14.7 -9.4 -14.1 -10.5 0.4 -0.7 0.2 -0.8 -0.4 -0.4 -1.4 0.9 -16.3 -6.5 -15.5 -7.7 0.3 -0.6 0.1 -0.7 -0.6 -0.3 -1.6 1 -5.3 -0.3 -4.5 -1.6 0.4 -0.6 0.2 -0.8 -0.4 -0.5 -0.5 0.4 -5 -0.3 -9.9 -1.5 -6.7 -1.6 -12.1 -2.1 -23 -2.2 -7.8 -0.1 -14 0.1 -13.7 0.3 0.2 0.3 -2.7 1.2 -6.5 2.2 -9.5 2.4 -20.5 7.1 -27.5 11.8 -3.3 2.2 -6.3 3.8 -6.8 3.5 -0.5 -0.3 -0.7 -0.2 -0.6 0.3 0.4 1.4 -6.8 7.4 -7.8 6.5 -0.5 -0.4 -0.6 -0.3 -0.2 0.2 0.4 0.5 -1.3 3.1 -3.7 5.7 -10.6 11.3 -18.8 27.6 -22.1 43.9 -2 10.1 -1.5 33.1 1 42 0.8 3 1.3 6.6 1.1 8 -0.4 1.8 -0.3 2 0.3 0.7 0.6 -1.4 1.1 -0.8 2.6 3.2 1 2.8 1.4 5.6 1 6.2 -0.4 0.7 -0.3 0.9 0.3 0.6 0.5 -0.3 2.4 2.4 4.2 6.1 4.7 9.6 11.4 20.3 19.7 31.4 4.5 6 6.8 9.9 6.1 10.2 -0.7 0.3 -0.6 0.5 0.4 0.5 1.8 0.1 7.8 6.1 6 6.1 -0.7 0 -0.9 0.5 -0.6 1 0.4 0.6 1 0.8 1.4 0.5 1.2 -0.7 16.2 16.5 15.5 17.7 -0.4 0.6 -0.2 0.8 0.4 0.5 1.3 -0.9 13.4 12.2 12.5 13.7 -0.3 0.6 -0.2 0.8 0.2 0.3 1.1 -1 24.6 22.4 23.8 23.6 -0.3 0.6 -0.2 0.7 0.4 0.4 1.3 -0.8 7.6 5.7 6.6 6.8 -0.5 0.4 -0.3 0.5 0.3 0.2 1.2 -0.7 27 22.9 26.7 24.4 -0.2 0.5 0 0.8 0.5 0.7 1.2 -0.5 8.2 5.3 7.9 6.5 -0.1 0.7 0.3 1.1 0.9 1 0.5 -0.1 3 1.6 5.5 3.9 2.4 2.2 3.6 3.5 2.7 2.8 -1.3 -0.9 -1.8 -0.9 -1.8 -0.1 0 0.6 0.3 1.1 0.8 1.2 3.2 0.3 5.3 1.6 12.7 7.9 4.7 3.9 8.5 7.5 8.5 8.1 0 0.5 0.4 0.8 0.9 0.6 1.1 -0.3 20.2 14.9 19.6 15.7 -0.3 0.3 -0.2 0.4 0.1 0.1 1.1 -0.8 6.5 3.6 5.8 4.7 -0.4 0.7 -0.2 0.8 0.4 0.4 1.6 -0.9 13.4 8.2 12.6 9.6 -0.4 0.7 -0.2 0.8 0.5 0.4 1.5 -0.9 12.3 7.2 11.5 8.6 -0.3 0.5 0.1 0.8 0.9 0.6 1.6 -0.3 20.9 13.1 20.2 14.2 -0.2 0.4 0.3 0.7 1.3 0.7 0.9 0 11.1 -7.2 22.6 -16z m-145.6 -8.9 c0.7 -1 1.8 -1.5 2.4 -1.2 0.6 0.4 0.8 0.3 0.5 -0.3 -0.7 -1.2 10.1 -13.5 11.2 -12.8 0.4 0.2 0.8 -0.1 0.9 -0.8 0 -0.7 0.2 -1.9 0.4 -2.8 0.3 -1.4 -5.6 -6.7 -24.6 -22.2 -7.9 -6.4 -7.5 -6.3 -10.4 -3.1 -1.4 1.6 -5.6 6.1 -9.4 10 -3.7 4 -6.8 7.6 -6.8 8.1 0 0.6 2.4 3 5.4 5.3 3 2.4 5.2 4.8 4.9 5.3 -0.3 0.6 -0.2 0.7 0.4 0.4 1 -0.7 20.9 14.1 20.6 15.2 -0.4 1.6 3.3 0.7 4.5 -1.1z m253.6 -3 c2.9 -2.4 10.1 -8.1 15.9 -12.7 9.2 -7.2 10.5 -8.6 9.7 -10.2 -1.1 -1.9 -9.6 -12.4 -14 -17.2 l-2.6 -2.8 -13.6 10.9 c-7.5 6 -14.9 11.8 -16.5 13 -2.7 2 -2.7 2.1 -0.9 4 1 1.2 1.5 2.6 1 3.3 -0.4 0.7 -0.3 1 0.3 0.6 1.3 -0.8 3.6 1.7 2.5 2.8 -0.4 0.5 -0.2 0.5 0.4 0.2 0.6 -0.4 3.4 2.3 6.3 5.8 2.8 3.6 5.4 6.5 5.6 6.5 0.3 0 2.9 -1.9 5.9 -4.2z m-313.1 -63.2 c5.3 -5.2 9.7 -9.8 9.7 -10.2 0 -0.5 -6.5 -7.4 -14.5 -15.3 -7.9 -7.9 -14.2 -14.8 -13.9 -15.2 0.6 -1 -2.5 0 -4.2 1.2 -0.6 0.5 -1.5 0.5 -1.9 0.1 -0.5 -0.4 -0.5 -0.2 -0.2 0.4 0.4 0.7 -0.8 2.3 -2.6 3.7 -1.7 1.3 -4.8 3.8 -6.7 5.5 -1.9 1.7 -3.9 2.8 -4.4 2.5 -0.5 -0.3 -0.6 -0.1 -0.2 0.5 0.3 0.6 0 1.4 -0.8 1.9 -1.2 0.7 -0.7 1.8 2.9 5.8 2.4 2.7 4.1 5.3 3.8 5.8 -0.2 0.4 0 0.6 0.5 0.5 0.8 -0.3 11.7 10.9 19.4 19.7 1.2 1.4 2.4 2.5 2.7 2.5 0.3 0 5 -4.2 10.4 -9.4z m388.8 -5.5 c7.8 -8.2 14.6 -15.6 15.1 -16.4 0.6 -1.1 -1.1 -3.2 -6.7 -8.2 -4.1 -3.7 -7.3 -7 -7.2 -7.3 0.1 -0.4 -0.2 -0.9 -0.8 -1 -0.5 -0.2 -1.7 -0.8 -2.6 -1.2 -1.2 -0.7 -3.3 0.9 -8.9 6.5 -4 4.1 -7.8 7.1 -8.4 6.8 -0.6 -0.3 -0.7 -0.2 -0.3 0.2 0.4 0.5 -2.7 4.4 -6.9 8.6 -7.2 7.2 -7.6 7.9 -6 9.4 0.9 0.9 1.3 2.2 0.9 2.8 -0.3 0.7 -0.2 0.9 0.2 0.4 1.1 -1 7.6 5.3 6.8 6.6 -0.3 0.6 -0.2 0.7 0.4 0.4 0.5 -0.3 2.7 1.2 4.8 3.3 2.2 2.2 4.2 4 4.6 4 0.4 0 7.1 -6.7 15 -14.9z m-450.6 -59.9 c4.5 -3.1 9.1 -6.4 10.5 -7.3 l2.4 -1.5 -6.1 -8 c-3.3 -4.3 -8.3 -11.4 -11.2 -15.6 -2.9 -4.3 -5.5 -7.8 -6 -7.8 -0.4 0 -2.7 1.2 -5.2 2.8 -6.1 3.8 -9.9 5.3 -11.1 4.6 -0.6 -0.4 -0.8 -0.2 -0.5 0.3 0.4 0.6 -0.7 1.6 -2.3 2.3 -3.4 1.4 -3.6 2.1 -1.4 5.5 0.9 1.3 1.2 3 0.8 3.6 -0.5 0.8 -0.3 0.9 0.6 0.4 1 -0.6 1.2 -0.4 0.7 0.9 -0.4 0.9 -0.3 1.5 0.2 1.2 0.4 -0.3 3 2.7 5.7 6.7 7.8 11.6 12.6 17.7 13.8 17.7 0.6 0 4.7 -2.6 9.1 -5.8z m502.6 -0.5 c12.4 -16.9 18.2 -26 17.3 -27.4 -0.5 -0.7 -5.2 -3.7 -10.4 -6.6 -5.2 -2.9 -9.4 -5.8 -9.3 -6.5 0.5 -2.2 -2.8 0 -4.3 3 -0.8 1.6 -2 2.6 -2.6 2.2 -0.7 -0.5 -0.8 -0.3 -0.3 0.5 0.9 1.6 -6.3 12.3 -7.8 11.4 -0.6 -0.3 -0.7 -0.1 -0.3 0.6 0.4 0.7 -1.4 3.9 -4.5 7.7 -2.8 3.6 -5 6.7 -4.7 6.9 0.2 0.2 4.2 3.2 8.9 6.6 4.6 3.3 8.3 6.4 8.2 6.8 -0.1 0.4 1 0.8 2.5 0.8 2.2 0.2 3.5 -0.9 7.3 -6z m-540.6 -79.3 c6.1 -1.5 11.1 -2.7 11.2 -2.8 0.1 -0.1 -0.7 -3.3 -1.8 -7.1 -1.1 -3.9 -2.5 -11.5 -3.2 -17 l-1.3 -10 -5.9 -0.8 c-12.1 -1.5 -20.5 -0.5 -20.5 2.4 0 0.6 0.4 0.8 0.8 0.5 1.1 -0.7 4.6 24 3.6 25.5 -0.4 0.7 -0.3 0.9 0.3 0.6 0.6 -0.4 1.6 1.7 2.4 5.3 0.7 3.3 1.8 6 2.4 6 0.5 0 6 -1.2 12 -2.6z m579.8 -10.1 c1.5 -7.1 2.8 -16.2 3 -20.3 l0.2 -7.5 -11 0 c-6 0 -11.6 0.4 -12.2 0.9 -0.7 0.5 -1.3 2.6 -1.3 4.7 0 2.1 -0.5 7.3 -1.2 11.6 -0.8 5.8 -1.3 7.3 -2 5.8 -0.6 -1.5 -0.7 -1.2 -0.3 1 0.3 1.7 0.1 4.5 -0.5 6.4 -0.5 1.9 -0.8 3.6 -0.7 3.8 0.7 0.7 19.3 6.1 21.3 6.2 1.9 0.1 2.3 -1.1 4.7 -12.6z m-563.1 -81.4 c2.5 -5.3 4.2 -7.8 4.9 -7.3 0.8 0.4 0.9 0.3 0.5 -0.5 -0.5 -0.7 1 -3.9 3.5 -7.8 3.4 -5.2 4 -6.7 2.8 -7.3 -0.8 -0.5 -5 -3.4 -9.4 -6.4 -4.4 -3.1 -8.5 -5.6 -9.1 -5.6 -2.8 0 -18.3 27.4 -19 33.5 -0.3 2 -0.1 2.5 0.5 1.6 0.7 -1 2.6 -0.5 9.3 2.7 4.7 2.2 8.8 4.4 9.2 5 1.3 2.1 3.1 0 6.8 -7.9z m537.9 8.1 c-1.1 -0.6 15.1 -9 17.2 -8.9 0.6 0 0.3 0.5 -0.8 1 -1.9 0.8 -1.9 0.9 -0.1 0.6 1.1 -0.1 2 -1.1 2.2 -2.2 0.3 -2.1 -7.8 -17.8 -14.8 -28.7 -4.2 -6.5 -4.5 -6.7 -6.5 -5.3 -1.2 0.8 -2.8 1.2 -3.7 0.9 -0.9 -0.3 -1.6 -0.1 -1.6 0.6 0 0.6 0.5 0.8 1.2 0.4 0.6 -0.4 0.8 -0.3 0.4 0.4 -0.3 0.6 -4 3.2 -8.1 5.7 -4.1 2.6 -7.5 4.9 -7.5 5.2 0 0.2 1.8 3.1 4 6.3 4.1 6.1 4.8 7.6 2.8 6.4 -0.7 -0.4 -0.8 -0.3 -0.4 0.5 0.4 0.6 1.1 0.9 1.5 0.6 1.2 -0.7 7.4 13.3 6.7 15.1 -0.3 0.8 -0.2 1.2 0.3 0.9 0.5 -0.3 1.2 -0.2 1.5 0.3 0.3 0.5 1.9 0.9 3.6 0.9 1.7 0 2.6 -0.3 2.1 -0.7z m-318.6 -35.7 c3.9 -4.2 4.2 -5.5 2 -7.3 -0.9 -0.7 -1.4 -1.9 -1.1 -2.7 0.3 -0.8 0.2 -1.2 -0.3 -0.9 -0.4 0.3 -2.6 -1.7 -4.7 -4.4 -2.1 -2.7 -6 -7.3 -8.6 -10.2 l-4.7 -5.2 -2.4 2.2 c-1.3 1.2 -2.7 1.9 -3.1 1.5 -0.4 -0.5 -0.6 -0.1 -0.4 0.7 0.2 0.8 -0.3 1.4 -1 1.2 -0.8 -0.1 -1.1 0.2 -0.8 0.7 0.3 0.5 -0.4 2.1 -1.6 3.6 l-2.1 2.7 3.2 2.5 c1.7 1.3 2.8 2.9 2.5 3.5 -0.4 0.6 -0.3 0.8 0.3 0.5 1.3 -0.8 8.5 5.2 7.7 6.5 -0.4 0.6 -0.3 0.8 0.3 0.5 0.5 -0.3 2.9 1.4 5.3 3.8 2.4 2.5 4.8 4.5 5.2 4.5 0.4 0 2.3 -1.7 4.3 -3.7z m-170 -26.3 c1.8 -2.9 22.6 -11.6 25.3 -10.5 0.9 0.3 1.3 0.3 0.9 -0.1 -0.4 -0.4 0.1 -1.3 1.1 -2 1.8 -1.2 1.8 -1.6 -1 -10.1 -1.6 -5 -2.6 -9.8 -2.3 -11.1 0.4 -1.5 0.2 -2.1 -0.5 -1.7 -0.5 0.3 -1 0.2 -1 -0.4 0 -0.6 -1.3 -0.9 -2.9 -0.8 -1.6 0.1 -2.7 0.5 -2.6 0.8 0.2 0.3 -1.3 1.1 -3.3 1.8 -2 0.7 -8.1 3.3 -13.4 5.8 -5.4 2.4 -10.1 4.2 -10.6 3.9 -0.5 -0.3 -1.5 0.5 -2.1 1.8 -1.1 2 -0.8 3.2 2.3 9.4 2.2 4.3 3.3 7.8 2.9 8.8 -0.4 1.1 -0.2 1.5 0.4 1.1 0.5 -0.4 1.5 0.5 2.1 1.8 1.2 2.6 3.6 3.3 4.7 1.5z m435.9 -1.3 c0.4 0.4 0.5 0.1 0.1 -0.7 -0.3 -0.8 1.4 -5.4 3.8 -10.3 3.9 -7.9 4.2 -8.9 2.7 -10.2 -1.7 -1.6 -15.5 -8.1 -23.2 -11 -2.7 -1 -4.8 -2.1 -4.8 -2.5 0 -0.3 -1.2 -0.6 -2.7 -0.6 -2.3 0 -2.8 0.4 -3 2.6 -0.1 1.4 -1.3 6.5 -2.7 11.4 -2.6 9 -2.6 10.6 0 10.6 0.8 0 1.2 0.4 0.9 1 -0.3 0.6 0.1 0.7 0.9 0.4 0.9 -0.4 1.6 -0.1 1.6 0.6 0 0.7 0.7 1 1.5 0.6 1.9 -0.7 14 5 14 6.6 0 0.6 0.6 1.3 1.4 1.6 0.9 0.3 1.1 0 0.6 -0.9 -0.5 -0.7 0.7 -0.4 2.6 0.8 2.8 1.7 3.6 1.8 4.5 0.7 0.6 -0.8 1.4 -1.1 1.8 -0.7z m-329.8 -8.8 c0.3 -0.6 1.5 -4.3 2.5 -8.2 1 -3.8 2.1 -7.3 2.6 -7.6 0.4 -0.3 0.8 -1.7 0.8 -3.1 0 -2 -0.9 -2.8 -4.3 -4 -2.3 -0.9 -3.9 -2 -3.5 -2.5 0.4 -0.4 0.3 -0.5 -0.4 -0.1 -0.6 0.3 -5 -0.5 -9.6 -1.8 -4.6 -1.4 -10.1 -2.8 -12.1 -3.1 -3.2 -0.6 -3.6 -0.5 -3.6 1.4 0 1.1 -0.3 2.1 -0.7 2.1 -0.5 0 -0.8 1.9 -0.8 4.3 0 2.3 -0.4 6.7 -0.9 9.8 l-0.8 5.5 9.9 2.3 c5.4 1.2 11.8 3 14.3 4.1 5.6 2.2 5.7 2.3 6.6 0.9z m230.6 -2.5 c3.7 -1.3 9.6 -2.8 13 -3.4 9 -1.6 10.1 -2 9 -3.3 -0.8 -1 -4.2 -18 -4.2 -21 0 -1.4 -7.4 0 -19.2 3.5 -5.7 1.6 -11.5 3.2 -13 3.5 -3.4 0.6 -3.4 1.1 -0.3 10.9 4 12.5 4.6 13.6 6.4 12.8 0.9 -0.4 4.6 -1.8 8.3 -3z m71.7 -60.8 c-0.2 -0.2 -2 -0.6 -3.9 -1 -2.5 -0.4 -3.1 -0.3 -2 0.4 1.4 0.9 6.9 1.5 5.9 0.6z"/>
 </g>
</svg>